<?xml version="1.0" standalone="no"?>
<!DOCTYPE svg PUBLIC "-//W3C//DTD SVG 20010904//EN"
 "http://www.w3.org/TR/2001/REC-SVG-20010904/DTD/svg10.dtd">
<svg version="1.0" xmlns="http://www.w3.org/2000/svg"
 width="300.000000pt" height="305.000000pt" viewBox="0 0 300.000000 305.000000"
 preserveAspectRatio="xMidYMid meet">
<metadata>
Created by potrace 1.10, written by Peter Selinger 2001-2011
</metadata>
<g transform="translate(0.000000,305.000000) scale(0.050000,-0.050000)"
fill="#000000" stroke="none">
<path d="M0 3810 c0 -1259 4 -2290 9 -2290 14 0 111 146 111 167 0 10 -13 7
-28 -6 -94 -78 -34 38 70 134 186 173 232 200 428 246 297 69 275 56 312 189
57 209 66 223 177 260 122 40 127 72 20 121 -103 46 -172 127 -200 235 -68
260 -82 317 -109 454 -17 83 -30 193 -30 245 0 106 -1 107 -195 248 -132 95
-143 116 -96 178 34 45 41 141 11 159 -45 28 -9 210 42 210 11 0 32 -28 46
-62 33 -79 52 65 52 410 1 401 55 872 100 872 8 0 2 -56 -14 -124 -44 -190
-30 -1196 17 -1249 44 -49 71 -210 97 -577 43 -628 59 -650 540 -777 588 -156
1346 -149 2008 19 338 86 416 161 561 541 42 108 93 239 113 291 49 120 48
132 -12 160 -65 29 -63 68 12 185 65 104 111 236 177 511 57 240 54 280 -31
382 -39 47 -107 149 -151 227 -44 77 -102 177 -129 221 -26 44 -62 127 -80
185 -43 147 -110 205 -164 140 -11 -14 -31 -145 -43 -291 -12 -147 -28 -292
-34 -323 -13 -68 20 -80 216 -81 153 0 277 -45 362 -130 107 -108 59 -135
-145 -80 -128 34 -312 39 -331 9 -19 -31 26 -75 93 -89 127 -28 212 -139 140
-184 -23 -15 -42 -58 -51 -118 -47 -309 -449 -330 -539 -29 -59 198 -113 231
-154 92 -20 -69 -35 -88 -65 -85 -39 4 -51 -19 -84 -156 l-14 -60 -29 69 c-18
42 -36 194 -48 390 -58 1004 -69 1094 -118 891 -16 -69 -31 -96 -41 -78 -26
49 -59 310 -59 477 l0 161 -258 0 -257 0 -18 -114 c-15 -99 -24 -116 -67 -126
-122 -29 -500 -665 -579 -978 -50 -192 -101 -530 -101 -661 0 -54 -9 -104 -20
-111 -102 -63 101 1261 232 1513 70 137 88 7 27 -192 -66 -213 -37 -194 110
71 75 137 163 279 196 317 60 68 134 209 135 256 0 19 -95 25 -409 25 l-408 0
-60 -155 c-74 -195 -163 -670 -163 -874 0 -6 -9 -11 -20 -11 -70 0 35 677 142
915 l56 125 -629 0 -629 0 0 -2290z m321 1143 c-82 -82 -92 212 -13 387 18 42
23 15 28 -158 3 -126 -3 -217 -15 -229z m1874 56 c111 -46 142 -83 184 -222
46 -149 94 -247 122 -247 24 0 24 29 -3 247 -12 97 -16 181 -10 187 18 18 89
-78 114 -154 30 -91 54 -120 100 -120 23 0 53 -30 78 -81 101 -198 91 -226
-39 -102 l-80 76 -38 -41 c-21 -23 -49 -78 -63 -122 -92 -292 -444 -305 -489
-18 -7 43 -21 108 -30 145 -22 82 -10 117 46 135 24 8 84 31 133 52 l90 39
-50 28 c-67 37 -308 37 -431 0 -117 -35 -125 -30 -73 43 115 162 282 221 439
155z m-1265 -668 c0 -29 -104 -74 -124 -53 -7 6 4 30 25 53 40 44 99 45 99 0z
m269 -159 c50 -71 76 -181 44 -185 -13 -2 -33 -4 -46 -5 -20 -2 -74 156 -76
223 -2 43 35 27 78 -33z m2408 -819 c48 -41 42 -120 -12 -144 -82 -37 -1228 5
-1270 47 -49 49 6 98 130 116 183 27 1115 11 1152 -19z m-485 -224 c72 -39 17
-59 -162 -59 -178 0 -243 24 -156 59 64 25 270 26 318 0z"/>
<path d="M3436 5254 c-17 -36 -43 -119 -56 -185 -14 -65 -51 -170 -82 -233
-80 -159 -78 -185 12 -142 60 28 70 43 70 101 0 37 23 107 51 155 36 61 55
129 63 229 13 155 -7 181 -58 75z"/>
<path d="M1664 2349 c-40 -29 -44 -47 -44 -227 0 -267 -32 -251 530 -281 400
-21 467 -29 515 -63 30 -22 87 -61 127 -88 l72 -49 143 78 c121 65 172 81 326
97 316 32 396 109 354 339 -21 114 -37 120 -327 123 -332 4 -1358 60 -1490 82
-154 25 -153 26 -206 -11z"/>
<path d="M4070 1817 c-5 -15 -59 -193 -121 -395 -124 -412 -277 -810 -451
-1178 -107 -228 -113 -246 -72 -240 133 19 791 1794 679 1831 -14 5 -29 -4
-35 -18z"/>
<path d="M3662 1775 c-10 -25 -47 -126 -82 -225 -264 -733 -557 -1015 -794
-765 -121 127 -386 659 -386 774 0 49 -106 249 -115 216 -11 -47 77 -312 190
-575 278 -647 554 -749 848 -316 137 202 327 637 385 881 16 67 -21 75 -46 10z"/>
<path d="M1947 1688 c65 -473 468 -1688 561 -1688 24 0 18 27 -30 134 -142
318 -282 749 -400 1236 -83 343 -96 387 -122 402 -16 10 -18 -14 -9 -84z"/>
<path d="M1608 1691 c-24 -62 125 -868 246 -1330 88 -336 97 -361 138 -361 22
0 28 11 20 33 -80 208 -236 927 -293 1355 -22 164 -45 306 -51 315 -16 26 -48
20 -60 -12z"/>
<path d="M2880 562 c-37 -25 -9 -56 60 -65 46 -7 50 -16 56 -130 9 -187 -107
-262 -176 -112 -39 83 -55 82 -72 -7 -17 -95 19 -130 141 -135 125 -4 165 46
188 232 11 95 27 143 52 162 63 46 -182 100 -249 55z"/>
</g>
</svg>
